<?xml version="1.0" ?><svg style="enable-background:new 0 0 104.734 110.952;" version="1.1" viewBox="0 0 104.734 110.952" xml:space="preserve" xmlns="http://www.w3.org/2000/svg" xmlns:xlink="http://www.w3.org/1999/xlink"><g id="clock"><g><rect height="4.819" transform="matrix(-0.4993 -0.8664 0.8664 -0.4993 -43.5515 130.3494)" width="4.819" x="13.478" y="75.349"/><polygon points="34.534,20.968 32.128,16.864 27.953,19.27 30.359,23.374   "/><rect height="4.819" transform="matrix(0.8664 0.4993 -0.4993 0.8664 19.878 -3.1445)" width="4.819" x="13.407" y="33.172"/><rect height="4.819" transform="matrix(-0.8664 -0.4993 0.4993 -0.8664 11.9151 189.5583)" width="4.819" x="28.905" y="90.776"/><polygon points="92.209,36.466 89.802,32.291 85.698,34.697 88.104,38.872   "/><rect height="5" width="5" x="7" y="54.292"/><rect height="4.819" transform="matrix(-0.8664 -0.4993 0.4993 -0.8664 127.0066 189.4903)" width="4.819" x="86.438" y="75.349"/><polygon points="70.2,20.968 74.375,23.445 76.781,19.27 72.606,16.864   "/><rect height="5" width="5" x="92" y="54.292"/><path d="M104.734,56.705c0-14.483-5.107-26.832-15.321-37.046C81.116,11.363,71.41,6.435,60.296,4.878    c1.629-0.517,2.619-1.194,2.619-1.935C62.915,1.318,58.161,0,52.297,0c-5.864,0-10.618,1.318-10.618,2.944    c0,0.748,1.007,1.43,2.664,1.949c-11.075,1.572-20.749,6.494-29.022,14.767C5.106,29.874,0,42.223,0,56.705    c0,14.484,5.106,26.832,15.321,37.046c6.383,6.384,13.6,10.772,21.651,13.166c-7.477,0.397-12.388,1.067-12.388,1.826    c0,1.219,12.661,2.208,28.28,2.208c15.618,0,28.28-0.988,28.28-2.208c0-0.788-5.294-1.48-13.257-1.871    c8-2.408,15.176-6.792,21.526-13.157C99.627,83.479,104.734,71.142,104.734,56.705z M52.367,105.605    c-13.493,0-25.016-4.777-34.57-14.33c-9.553-9.553-14.33-21.076-14.33-34.569c0-13.492,4.777-25.016,14.33-34.569    c9.554-9.554,21.076-14.33,34.57-14.33c13.492,0,25.016,4.777,34.569,14.33c9.553,9.553,14.33,21.077,14.33,34.569    c0,13.493-4.777,25.016-14.33,34.569S65.859,105.605,52.367,105.605z"/><rect height="5" width="4" x="50" y="96.292"/><polygon points="63.692,71.92 54,55.998 54,22.292 58.524,22.292 52.367,10.049 46.281,22.292 48,22.292 48,49.062 44.391,51.115     48,57.413 48,62.292 53.924,62.292 59.656,73.369 56.613,75.723 68.006,83.517 66.982,70.005   "/><polygon points="70.2,92.301 72.606,96.476 76.711,94.07 74.305,89.895   "/></g></g><g id="Слой_1"/></svg>